<svg xmlns="http://www.w3.org/2000/svg" style="display: none;">

  <symbol id="icon-facebook" viewBox="0 0 8 20">
    <path d="M6.93 0.0700003C7.14 0.0700003 7.35 0.0700003 7.77 0.0700003V3.22C7.56 3.22 7.14 3.22 6.72 3.22C6.3 3.22 5.88 3.22 5.67 3.43C5.46 3.64 5.45999 3.85 5.45999 4.34C5.45999 4.76 5.45999 5.04 5.45999 5.46H7.77V8.12H5.45999V19.67H1.89001V8.05H0V5.39H1.89001V4.48C1.89001 2.94 2.1 1.82 2.52 1.33C3.15 0.42 4.41 0 6.3 0C6.51 0.07 6.72 0.0700003 6.93 0.0700003Z" />
  </symbol>

  <symbol id="icon-instagram" viewBox="0 0 28 28">
    <g opacity="0.8">
        <path d="M25.1277 9.41145C25.114 8.47139 24.9398 7.53878 24.6065 6.65957C24.0231 5.15821 22.8352 3.97103 21.3313 3.38985C20.4618 3.06325 19.5426 2.88816 18.6122 2.86829C17.4155 2.81489 17.0361 2.79999 13.9986 2.79999C10.961 2.79999 10.5716 2.79999 9.38372 2.86829C8.45454 2.88816 7.5353 3.06325 6.66582 3.38985C5.16195 3.97103 3.97279 5.15821 3.39065 6.65957C3.06351 7.52761 2.88688 8.44532 2.86946 9.37296C2.81598 10.5688 2.7998 10.9476 2.7998 13.9801C2.7998 17.0127 2.7998 17.4001 2.86946 18.5873C2.88812 19.5162 3.06351 20.4326 3.39065 21.3032C3.97404 22.8033 5.16195 23.9905 6.66706 24.5716C7.53281 24.9094 8.45205 25.1006 9.38497 25.1304C10.5828 25.1838 10.9622 25.2 13.9998 25.2C17.0374 25.2 17.4267 25.2 18.6146 25.1304C19.5438 25.1118 20.4631 24.9367 21.3338 24.6101C22.8377 24.0277 24.0256 22.8405 24.609 21.3404C24.9361 20.4711 25.1115 19.5547 25.1301 18.6245C25.1836 17.4299 25.1998 17.0511 25.1998 14.0174C25.1973 10.9848 25.1973 10.5999 25.1277 9.41145ZM13.9911 19.7149C10.8142 19.7149 8.24059 17.1455 8.24059 13.9739C8.24059 10.8023 10.8142 8.23296 13.9911 8.23296C17.1655 8.23296 19.7416 10.8023 19.7416 13.9739C19.7416 17.1455 17.1655 19.7149 13.9911 19.7149ZM19.9705 9.3593C19.2279 9.3593 18.6296 8.76074 18.6296 8.02061C18.6296 7.28049 19.2279 6.68193 19.9705 6.68193C20.7106 6.68193 21.3102 7.28049 21.3102 8.02061C21.3102 8.76074 20.7106 9.3593 19.9705 9.3593Z" />
        <path d="M13.9932 17.479C15.9282 17.479 17.4967 15.9104 17.4967 13.9755C17.4967 12.0406 15.9282 10.472 13.9932 10.472C12.0583 10.472 10.4897 12.0406 10.4897 13.9755C10.4897 15.9104 12.0583 17.479 13.9932 17.479Z" />
    </g>
  </symbol>

  <symbol id="icon-youtube" viewBox="0 0 28 28">
    <g opacity="0.8">
      <path fill-rule="evenodd" clip-rule="evenodd" d="M21.2099 5.24986C20.0199 5.17986 17.5699 5.10986 13.8599 5.10986H13.3699C9.79985 5.10986 7.41989 5.17986 6.22989 5.31986C4.61989 5.45986 3.49985 5.87986 2.86985 6.43986C2.30985 6.92986 1.88987 7.83986 1.74987 9.02986C1.67987 9.79986 1.60986 11.4099 1.60986 13.8599V14.2099C1.60986 16.5199 1.67985 18.1299 1.81985 18.8999C2.02985 20.0199 2.37989 20.8599 3.07989 21.3499C3.77989 21.9099 4.96987 22.2599 6.64987 22.3999C7.83987 22.4699 10.2899 22.5399 13.9999 22.5399H14.4899C18.0599 22.5399 20.4399 22.4699 21.6299 22.3299C23.2399 22.1899 24.3599 21.7699 24.9899 21.2099C25.5499 20.7199 25.9699 19.8099 26.1099 18.6199C26.1799 17.8499 26.2499 16.2399 26.2499 13.7899V13.4399C26.2499 11.1299 26.1799 9.51986 26.0399 8.74986C25.8299 7.62986 25.4799 6.78986 24.7799 6.29986C24.0799 5.73986 22.8899 5.38986 21.2099 5.24986ZM18.4799 13.8599L10.7799 18.4799V9.23986L18.4799 13.8599Z" />
    </g>
  </symbol>
    <symbol id="strilka" viewBox="0 0 24 16">
        <path d="M20.0315 9.31756C19.901 8.34016 19.8167 7.46771 19.7785 6.70022C19.762 5.9202 19.7916 5.24514 19.8674 4.67504L0.897449 15.6273L1.26301e-05 14.0729L18.97 3.12063C18.4241 2.87653 17.8176 2.55233 17.1503 2.14803C16.5047 1.73122 15.7984 1.23431 15.0315 0.657303L16.1703 -0.000212369C18.5768 1.01191 20.7777 1.51766 22.7731 1.51706L23.1577 2.18324C22.1453 3.88628 21.4828 6.04522 21.1703 8.66004L20.0315 9.31756Z" />
    </symbol>
</svg>